<?xml version="1.0" encoding="UTF-8" standalone="no"?>
<!-- Created with Inkscape (http://www.inkscape.org/) -->

<svg
   xmlns:dc="http://purl.org/dc/elements/1.1/"
   xmlns:cc="http://creativecommons.org/ns#"
   xmlns:rdf="http://www.w3.org/1999/02/22-rdf-syntax-ns#"
   xmlns:svg="http://www.w3.org/2000/svg"
   xmlns="http://www.w3.org/2000/svg"
   xmlns:sodipodi="http://sodipodi.sourceforge.net/DTD/sodipodi-0.dtd"
   xmlns:inkscape="http://www.inkscape.org/namespaces/inkscape"
   id="svg4717"
   version="1.1"
   inkscape:version="0.48.5 r10040"
   width="995.79657"
   height="995.79657"
   sodipodi:docname="SoundcloudButton.svg"
   inkscape:export-filename="D:\Users\Chris\Documents\Georgina Website\SoundcloudButton.png"
   inkscape:export-xdpi="4.5189953"
   inkscape:export-ydpi="4.5189953">
  <metadata
     id="metadata4723">
    <rdf:RDF>
      <cc:Work
         rdf:about="">
        <dc:format>image/svg+xml</dc:format>
        <dc:type
           rdf:resource="http://purl.org/dc/dcmitype/StillImage" />
        <dc:title></dc:title>
      </cc:Work>
    </rdf:RDF>
  </metadata>
  <defs
     id="defs4721">
    <clipPath
       clipPathUnits="userSpaceOnUse"
       id="clipPath4729">
      <rect
         style="fill:#5ea9dd;fill-opacity:1;stroke:none"
         id="rect4731"
         width="893.83051"
         height="963.25421"
         x="65.084747"
         y="21.694914"
         rx="100"
         ry="100" />
    </clipPath>
  </defs>
  <sodipodi:namedview
     pagecolor="#ffffff"
     bordercolor="#666666"
     borderopacity="1"
     objecttolerance="10"
     gridtolerance="10"
     guidetolerance="10"
     inkscape:pageopacity="0"
     inkscape:pageshadow="2"
     inkscape:window-width="1366"
     inkscape:window-height="706"
     id="namedview4719"
     showgrid="false"
     fit-margin-top="0"
     fit-margin-left="0"
     fit-margin-right="0"
     fit-margin-bottom="0"
     inkscape:zoom="0.4609375"
     inkscape:cx="797.87718"
     inkscape:cy="479.45759"
     inkscape:window-x="-8"
     inkscape:window-y="-8"
     inkscape:window-maximized="1"
     inkscape:current-layer="svg4717" />
  <rect
     style="fill:#808096;fill-opacity:1;stroke:none"
     id="rect4733"
     width="995.79657"
     height="995.79657"
     x="0"
     y="0"
     rx="50"
     ry="50" />
  <rect
     style="fill:#ffffff;fill-opacity:1;stroke:#ffffff;stroke-width:100.0115509;stroke-linecap:round;stroke-linejoin:miter;stroke-miterlimit:4;stroke-opacity:1;stroke-dasharray:none;stroke-dashoffset:0"
     id="rect4859"
     width="828.25964"
     height="826.09015"
     x="81.598999"
     y="88.107437"
     rx="61.976612"
     ry="63.04237" />
  <g
     id="g4338"
     transform="matrix(1.9170453,0,0,1.9170453,-2152.8068,-631.77813)"
     style="fill:#808096;fill-opacity:1">
    <path
       style="fill:#808096;fill-opacity:1"
       d="m 1202.3632,844.16478 c -8.4324,-1.43165 -18.8978,-5.01199 -27.1339,-9.28284 -21.6497,-11.22647 -37.5038,-30.58861 -45.2221,-55.22825 l -2.8038,-8.95066 0,-181 0,-181 3.8035,-11.61226 c 4.7345,-14.45456 10.7207,-24.8017 20.0012,-34.57167 12.0538,-12.68942 24.4729,-20.32876 42.203,-25.96001 l 8.9923,-2.85606 180.5,0 180.5,0 8.9923,2.85606 c 17.7301,5.63125 30.1493,13.27059 42.203,25.96001 9.2805,9.76997 15.2668,20.11711 20.0012,34.57167 l 3.8035,11.61226 0,181 0,181 -2.8038,8.95066 c -9.6659,30.85718 -31.3883,52.57964 -62.2455,62.24557 l -8.9507,2.80377 -178.5,0.14176 c -98.175,0.078 -180.6781,-0.22803 -183.3402,-0.68001 z m 58.1319,-190.21175 c 0.57,-0.6875 1.9378,-11.825 3.0393,-24.75 1.9983,-23.44555 1.9984,-23.58458 0.039,-60 -1.3986,-25.99828 -2.3306,-36.87022 -3.2394,-37.78674 -1.6983,-1.71296 -4.5364,-0.51873 -5.1024,2.14704 -0.2499,1.17684 -1.1725,17.83442 -2.0503,37.01686 -1.466,32.03562 -1.4644,36.7203 0.019,57.5 0.8884,12.44256 2.0303,23.63534 2.5375,24.87284 1.0177,2.48308 3.1544,2.93228 4.7567,1 z m 18.0384,-0.0453 c 0.5913,-0.71243 1.9003,-11.98252 2.9089,-25.04465 1.7666,-22.87687 1.7697,-25.33653 0.085,-66.95469 -0.9618,-23.76294 -1.9869,-44.16821 -2.2778,-45.34505 -0.6797,-2.74936 -2.8711,-3.57444 -5.1221,-1.92848 -1.587,1.16046 -1.9023,4.8021 -3.0456,35.18131 -0.7014,18.63778 -1.2845,41.08687 -1.2957,49.88687 -0.026,20.69308 2.236,51.97437 3.9046,53.98481 1.5413,1.8572 3.4133,1.9422 4.8427,0.21988 z m 18.0844,-0.10169 c 0.6853,-0.82573 1.8436,-11.00143 2.8324,-24.88391 1.5547,-21.82514 1.5594,-26.89295 0.066,-71.62629 -1.1502,-34.46003 -1.9551,-48.55899 -2.8324,-49.61608 -1.5042,-1.81245 -4.3721,-1.91491 -5.7897,-0.20685 -0.6579,0.79277 -1.6289,19.67229 -2.5844,50.25 -1.344,43.01199 -1.355,51.47802 -0.091,69.48013 0.7919,11.275 1.4498,21.48036 1.462,22.67857 0.043,4.20547 4.5753,6.76971 6.9367,3.92443 z m 18.1784,-0.21496 c 0.9186,-1.1068 1.8195,-8.86311 2.8748,-24.75 1.3775,-20.73761 1.3811,-28.33538 0.035,-73.23593 -1.5717,-52.4112 -1.6831,-53.40212 -6.0023,-53.40212 -4.1834,0 -4.3038,1.1134 -5.7534,53.22559 -1.2111,43.54264 -1.2025,53.13803 0.066,73.44045 0.9424,15.08399 1.897,23.88136 2.6958,24.84383 1.6204,1.95248 4.4095,1.89663 6.0847,-0.12183 z m 18.1554,-0.13805 c 1.2061,-1.35453 1.9031,-6.9529 3.0845,-24.77357 1.3611,-20.53085 1.3664,-28.32618 0.049,-72 -1.3801,-45.75354 -1.603,-49.10342 -3.3872,-50.90626 -1.6046,-1.62143 -2.3117,-1.74672 -4.4246,-0.78401 -1.3831,0.6302 -2.7269,2.17363 -2.9862,3.42983 -0.2593,1.25621 -0.9899,23.38873 -1.6235,49.18339 -1.2677,51.61026 -0.1671,90.80697 2.6773,95.35062 1.6859,2.6931 4.4704,2.90371 6.6107,0.5 z m 18.2404,0.38192 c 1.6481,-1.20515 2.0354,-3.97422 3.252,-23.25 1.1122,-17.62397 1.1732,-29.56813 0.3134,-61.38192 -0.5872,-21.725 -1.0645,-43.41241 -1.0608,-48.19424 0.01,-7.72316 -0.2594,-9.0036 -2.3758,-11.46405 -2.1328,-2.47954 -2.6539,-2.64615 -4.9724,-1.58977 -1.4245,0.64902 -2.8106,2.20785 -3.0802,3.46405 -0.2697,1.25621 -0.9986,22.7388 -1.6197,47.73909 -1.2497,50.299 -0.1346,89.34282 2.679,93.79492 1.6167,2.55824 4.1303,2.88118 6.8645,0.88192 z m 18.9078,-0.51759 c 1.4148,-1.5633 1.922,-5.79448 2.9669,-24.75 0.9996,-18.13228 1.0176,-34.54288 0.087,-79.29281 l -1.1732,-56.42847 -2.2781,-1.84468 c -2.5105,-2.03294 -5.6906,-1.62515 -7.7493,0.99373 -0.8159,1.038 -1.2599,5.25655 -1.2785,12.14903 -0.016,5.80738 -0.4661,30.13387 -1.0011,54.05887 -1.0919,48.83781 0.083,90.64209 2.6627,94.75 1.7304,2.75533 5.442,2.92951 7.7634,0.36433 z m 18.6035,-0.11433 c 1.245,-1.24503 2.0297,-3.41557 2.0788,-5.75 0.043,-2.0625 0.6104,-12.47424 1.2603,-23.13721 0.9163,-15.03583 0.903,-32.76707 -0.059,-79 -0.6825,-32.78703 -1.48,-60.6123 -1.7722,-61.83393 -1.0668,-4.46004 -8.2525,-5.49268 -10.3927,-1.49352 -1.2719,2.37652 -3.5479,113.60808 -2.736,133.71466 1.2159,30.11461 1.7718,35.65076 3.7819,37.66086 2.395,2.39493 5.3439,2.33441 7.8392,-0.16086 z m 177.7151,-0.5404 c 24.6057,-8.25986 39.8198,-32.18069 36.4608,-57.32644 -4.3298,-32.41307 -36.8794,-53.95158 -67.5731,-44.71413 -5.0161,1.50963 -6.6006,1.08956 -6.6098,-1.75236 -0.03,-9.17359 -7.9938,-29.8873 -16.0557,-41.75906 -23.2841,-34.28735 -69.9861,-49.40667 -108.9373,-35.26739 -8.8339,3.2067 -8,-6.38463 -8,92.01477 0,86.01168 0.031,87.37554 2,89.34501 1.9665,1.96649 3.3333,2 81.5737,2 l 79.5737,0 7.5677,-2.5404 z m -340.6758,0.18341 c 0.022,-0.0786 1.0834,-10.80058 2.3596,-23.82651 l 2.3203,-23.6835 -2.2875,-24.21294 c -2.2912,-24.25154 -3.1453,-27.69905 -6.1029,-24.6339 -0.7031,0.72862 -1.936,10.72556 -3.0842,25.00848 -1.8878,23.48247 -1.8875,24.09907 0.024,47 1.0655,12.76295 2.3738,23.74111 2.9073,24.39592 0.7383,0.90627 3.6108,0.87091 3.863,-0.0476 z m 17.3467,0.54157 c 0.2771,-0.44848 1.4789,-11.42176 2.6705,-24.38507 l 2.1666,-23.56966 -2.1465,-22.36416 c -2.2145,-23.07344 -3.0329,-26.1343 -6.3163,-23.62547 -1.342,1.02542 -1.9715,5.41022 -3.3837,23.57034 -1.6474,21.18476 -1.6471,23.47192 0.01,45.32561 0.9568,12.65828 1.9856,23.65603 2.2862,24.43944 0.5867,1.52886 3.8868,1.95477 4.7185,0.60897 z m -32.3374,-25.89049 2.2539,-22.2059 -2.1997,-22.2941 c -2.4395,-24.72302 -2.6326,-25.79409 -4.6511,-25.79409 -1.9337,0 -2.17,1.4286 -4.343,26.25732 -1.8901,21.5953 -1.8892,21.92296 0.1156,44 1.111,12.23347 2.4889,22.82776 3.0619,23.54287 2.4002,2.99496 3.5476,-1.68529 5.7624,-23.5061 z m -17.431,-2.78711 2.4724,-18.74792 -2.0443,-17.12953 c -2.7142,-22.74296 -2.8857,-23.62953 -4.5719,-23.62953 -1.8337,0 -2.0099,0.92294 -4.294,22.5 -1.9044,17.98928 -1.9043,18.01101 0.2073,36.5 3.1804,27.84607 4.6134,27.93435 8.2305,0.50698 z m -19.0853,4.44074 c 0.3577,-0.57876 1.4826,-6.15407 2.4998,-12.38959 1.8047,-11.0636 1.8038,-11.62116 -0.038,-23.09425 -1.7998,-11.21206 -3.0638,-14.72761 -4.7052,-13.08624 -0.4093,0.40936 -1.4476,6.22936 -2.3073,12.93333 -1.3415,10.46165 -1.3784,13.60619 -0.2606,22.18903 0.7163,5.5 1.5307,11.0125 1.8097,12.25 0.5385,2.38832 1.924,2.94119 3.0015,1.19772 z"
       id="path4340"
       inkscape:connector-curvature="0" />
  </g>
</svg>
