<?xml version="1.0" encoding="UTF-8" standalone="no"?>
<!-- Created with Inkscape (http://www.inkscape.org/) -->

<svg
   xmlns:dc="http://purl.org/dc/elements/1.1/"
   xmlns:cc="http://creativecommons.org/ns#"
   xmlns:rdf="http://www.w3.org/1999/02/22-rdf-syntax-ns#"
   xmlns:svg="http://www.w3.org/2000/svg"
   xmlns="http://www.w3.org/2000/svg"
   xmlns:sodipodi="http://sodipodi.sourceforge.net/DTD/sodipodi-0.dtd"
   xmlns:inkscape="http://www.inkscape.org/namespaces/inkscape"
   id="svg4717"
   version="1.1"
   inkscape:version="0.48.5 r10040"
   width="995.79657"
   height="995.79657"
   sodipodi:docname="YoutubeButton.svg"
   inkscape:export-filename="D:\Users\Chris\Documents\Georgina Website\YoutubeButton.png"
   inkscape:export-xdpi="4.5189953"
   inkscape:export-ydpi="4.5189953">
  <metadata
     id="metadata4723">
    <rdf:RDF>
      <cc:Work
         rdf:about="">
        <dc:format>image/svg+xml</dc:format>
        <dc:type
           rdf:resource="http://purl.org/dc/dcmitype/StillImage" />
        <dc:title />
      </cc:Work>
    </rdf:RDF>
  </metadata>
  <defs
     id="defs4721">
    <clipPath
       clipPathUnits="userSpaceOnUse"
       id="clipPath4729">
      <rect
         style="fill:#5ea9dd;fill-opacity:1;stroke:none"
         id="rect4731"
         width="893.83051"
         height="963.25421"
         x="65.084747"
         y="21.694914"
         rx="100"
         ry="100" />
    </clipPath>
  </defs>
  <sodipodi:namedview
     pagecolor="#ffffff"
     bordercolor="#666666"
     borderopacity="1"
     objecttolerance="10"
     gridtolerance="10"
     guidetolerance="10"
     inkscape:pageopacity="0"
     inkscape:pageshadow="2"
     inkscape:window-width="1366"
     inkscape:window-height="706"
     id="namedview4719"
     showgrid="false"
     fit-margin-top="0"
     fit-margin-left="0"
     fit-margin-right="0"
     fit-margin-bottom="0"
     inkscape:zoom="0.4609375"
     inkscape:cx="334.99203"
     inkscape:cy="479.45759"
     inkscape:window-x="-8"
     inkscape:window-y="-8"
     inkscape:window-maximized="1"
     inkscape:current-layer="svg4717" />
  <rect
     style="fill:#808096;fill-opacity:1;stroke:none"
     id="rect4733"
     width="995.79657"
     height="995.79657"
     x="0"
     y="0"
     rx="50"
     ry="50" />
  <path
     sodipodi:nodetypes="cssssssssssssssccsssscccssssssssssssssssssssssssssscccsssscssssssscccsscssssscssssssscscsssscscccccssscscccccccscsssccsssssssscsssssssssssssscsssscccccccsssssscscsscccssssscsscsss"
     inkscape:connector-curvature="0"
     id="path4287"
     d="m 244.64446,906.39592 c -28.1183,-2.52465 -54.11315,-14.83479 -74.47402,-35.26803 -18.15385,-18.21837 -29.24011,-39.61803 -33.5944,-64.84672 -1.68066,-9.73773 -1.75416,-15.03423 -1.75416,-126.40326 0,-111.36902 0.0735,-116.66552 1.75416,-126.40325 7.67175,-44.44999 39.08213,-80.64332 82.19547,-94.71162 17.84763,-5.82384 -1.20652,-5.45176 279.18383,-5.45176 230.18011,0 255.26534,0.13802 262.90126,1.44656 36.92266,6.32726 69.45351,30.2425 86.63416,63.68968 4.84225,9.42695 8.83341,20.40988 11.476,31.57995 1.47152,6.22033 1.61068,15.4926 1.88355,125.53804 0.3205,129.21854 0.39806,126.82005 -4.66978,144.46133 -1.27343,4.43282 -4.68313,12.91178 -7.57709,18.84212 -17.00772,34.85268 -48.13422,58.47493 -87.47836,66.38822 -7.50446,1.50931 -21.86744,1.60531 -258.24437,1.72486 -137.66386,0.0698 -253.87017,-0.19406 -258.23624,-0.58612 z m 173.75332,-68.42834 c 9.07801,-4.46834 18.08346,-13.29906 24.04617,-23.57958 2.96743,-5.11625 4.53871,-7.06827 5.04597,-6.26864 0.40515,0.63868 0.7428,7.31564 0.75034,14.83768 l 0.0137,13.67644 16.79101,-0.24363 16.79101,-0.24365 0.23075,-110.59675 c 0.21529,-103.18285 0.12877,-110.67179 -1.29056,-111.71616 -1.59387,-1.17278 -30.93373,-1.67274 -33.79224,-0.57583 -1.2699,0.48731 -1.4181,6.16482 -1.43181,54.85062 -0.0164,58.1118 -0.99638,90.07265 -3.05636,99.67686 -3.23453,15.08026 -13.00493,26.90942 -23.9169,28.95652 -4.03372,0.75673 -10.24429,-0.88112 -13.93913,-3.67604 -4.02384,-3.04376 -8.91476,-13.53144 -10.18717,-21.84444 -0.68263,-4.45971 -1.17503,-31.99136 -1.4655,-81.9401 -0.32116,-55.22595 -0.71083,-75.39861 -1.4658,-75.88164 -1.90985,-1.2219 -32.31799,-0.80162 -34.05804,0.47074 -1.49593,1.09384 -1.56069,5.56586 -1.20283,83.05951 0.3251,70.3986 0.58753,83.31681 1.86829,91.96545 2.85023,19.24703 8.11074,31.85009 17.14039,41.06477 8.7403,8.91939 16.50126,12.12938 28.35263,11.72685 6.90869,-0.23464 8.52234,-0.64079 14.77608,-3.71898 z m 187.16414,2.3672 c 9.88171,-3.08469 18.61043,-10.38908 25.87319,-21.65122 13.07111,-20.26898 19.34127,-44.28833 20.87951,-79.98362 1.78056,-41.31916 -2.8354,-73.62971 -13.71615,-96.00902 -11.11099,-22.85275 -25.7154,-34.40601 -43.54056,-34.444 -13.30663,-0.0284 -25.4119,7.73784 -35.31914,22.65922 -1.85924,2.80021 -3.72636,5.09128 -4.14916,5.09128 -0.42279,0 -0.76873,-23.96338 -0.76873,-53.25196 0,-51.73211 -0.0494,-53.2784 -1.73217,-54.17897 -1.84488,-0.98735 -31.12236,-1.3218 -33.56764,-0.38346 -1.28408,0.49276 -1.41652,14.93772 -1.41652,154.49701 l 0,153.95344 16.791,-0.24363 16.79101,-0.24365 0.24662,-14.10444 c 0.13565,-7.75745 0.54111,-14.10445 0.90105,-14.10445 0.35994,0 2.46538,3.09987 4.67875,6.8886 12.54725,21.47771 30.47419,30.99502 48.04894,25.50887 z m -24.99766,-46.01245 c -4.71918,-1.25329 -11.73777,-7.90551 -15.5689,-14.7562 -7.3862,-13.20776 -10.17748,-29.21467 -10.1692,-58.31627 0.009,-31.84506 4.05477,-48.48662 14.5575,-59.88074 4.99898,-5.42325 9.23393,-7.4613 15.50416,-7.4613 15.08149,0 25.88433,16.43332 28.91951,43.99247 2.51767,22.85957 1.89385,47.02835 -1.66119,64.36549 -3.27483,15.97023 -12.31054,29.7012 -21.16231,32.15898 -4.065,1.1287 -5.84987,1.11115 -10.41957,-0.10243 z m 170.16087,46.29649 c 21.42837,-5.05225 37.11189,-24.48702 45.8621,-56.8316 1.44063,-5.32547 1.58176,-6.90341 0.69278,-7.74777 -1.4331,-1.3611 -33.47607,-10.06837 -34.49132,-9.37257 -0.42081,0.28835 -1.4854,3.22659 -2.36579,6.52944 -4.44724,16.68307 -11.46964,24.39469 -22.14451,24.3181 -11.42496,-0.0819 -20.88381,-10.39514 -25.7978,-28.12788 -2.16053,-7.79672 -4.13846,-24.8811 -3.01109,-26.0085 0.43818,-0.43822 20.92965,-0.90132 45.53649,-1.02912 l 44.73974,-0.23235 -0.12949,-19.70144 c -0.34155,-51.99022 -13.44364,-89.66825 -36.67585,-105.46982 -7.96431,-5.41699 -15.04,-7.85408 -24.53789,-8.45159 -14.95035,-0.94054 -24.92089,3.03805 -36.26857,14.47235 -11.0552,11.13966 -19.37431,26.94783 -24.13794,45.86779 -7.27252,28.88388 -8.51774,67.87762 -3.17229,99.3355 6.97503,41.04774 24.27737,66.19745 49.78887,72.37032 6.97332,1.68729 19.13547,1.72415 26.11256,0.0792 z M 710.0446,704.43927 c -0.82621,-2.15304 0.43827,-16.14983 2.0571,-22.77032 2.96426,-12.1232 9.58189,-22.46617 16.69644,-26.09575 5.29055,-2.69906 13.44462,-2.07571 18.47825,1.41259 9.3701,6.49344 15.5688,22.2821 16.37101,41.69805 l 0.27743,6.7164 -26.66465,0.23724 c -23.7758,0.21154 -26.72439,0.0818 -27.21558,-1.19821 z m -414.02909,4.09529 0.44776,-127.61164 27.76113,-0.44776 27.76113,-0.44776 0.23825,-24.96549 c 0.16863,-17.67097 -0.0596,-25.32445 -0.78129,-26.19397 -0.84894,-1.02291 -13.32645,-1.22619 -74.56643,-1.21477 -40.45079,0.007 -74.05702,0.33752 -74.68052,0.73328 -0.88036,0.55882 -1.08042,6.40779 -0.89552,26.18026 l 0.2381,25.46069 27.76113,0.44776 27.76113,0.44776 0.22694,127.85332 0.22694,127.85333 19.02675,-0.24168 19.02674,-0.24169 z M 827.40728,510.4007 c -4.6225,-7.92404 -12.47648,-16.77139 -20.04962,-22.58571 -10.37022,-7.96171 -0.14561,-11.3494 14.10561,3.00443 8.12129,8.17972 6.15231,20.70068 6.3101,20.70068 0.15779,0 -0.009,-0.50373 -0.36609,-1.1194 z M 478.61165,401.86572 c -27.24927,-7.51544 -46.82609,-33.13958 -54.42786,-71.24072 -8.57317,-42.96994 -4.03577,-90.79333 11.56174,-121.8587 4.89896,-9.75718 8.04075,-14.31107 14.6959,-21.30105 15.87103,-16.66953 36.66398,-22.57326 57.17838,-16.23464 27.99654,8.6505 49.50946,45.09926 54.44608,92.24652 1.50686,14.39134 0.60428,44.16942 -1.73668,57.29714 -5.123,28.72888 -15.15527,50.0878 -30.95538,65.90464 -8.62252,8.63164 -15.08537,12.592 -24.74269,15.16203 -5.94021,1.58082 -20.32796,1.59452 -26.01949,0.0248 z m 22.17551,-49.81855 c 4.82602,-2.33624 11.31798,-9.48635 14.70475,-16.1955 6.81894,-13.50825 9.36799,-30.16851 8.606,-56.24784 -0.72678,-24.8744 -3.92009,-37.45398 -12.59285,-49.60778 -14.97006,-20.97866 -37.86289,-13.84859 -47.64708,14.8399 -3.26879,9.5845 -4.8966,20.05266 -5.47243,35.19215 -1.10058,28.93574 3.9336,50.99646 14.73835,64.5863 6.92639,8.71179 18.56265,11.8383 27.66326,7.43277 z m 125.22755,49.90975 c -17.18557,-5.69132 -28.09247,-20.54715 -32.75894,-44.61959 -0.93636,-4.83037 -2.1077,-15.13386 -2.60283,-22.89665 -1.06627,-16.714 -1.20474,-157.78022 -0.15654,-159.43179 0.55406,-0.87292 4.89008,-1.08204 18.56835,-0.89552 l 17.84548,0.24334 0.57188,76.56698 c 0.61791,82.74332 0.7628,85.22825 5.51112,94.52245 10.53472,20.62032 33.57404,13.74139 42.14148,-12.58234 2.91008,-8.94111 3.49244,-21.93604 4.05366,-90.44755 l 0.55756,-68.05954 18.13777,-0.24244 18.13778,-0.24243 -0.22737,112.18247 -0.22737,112.18247 -16.56713,0 -16.56712,0 -0.44776,-13.88056 c -0.24627,-7.63432 -0.73021,-13.88057 -1.07552,-13.88057 -0.34523,0 -3.05767,3.68852 -6.02766,8.19672 -6.48751,9.84759 -13.44507,16.29787 -22.32783,20.69984 -5.92145,2.93443 -7.43121,3.29406 -14.77608,3.51968 -5.05978,0.15543 -9.54742,-0.20127 -11.76293,-0.93497 z m -304.32761,-3.8694 c -0.32836,-0.32835 -0.59702,-29.56283 -0.59702,-64.9655 l 0,-64.3685 -34.16919,-87.49682 C 268.12783,133.13345 252.56617,92.644651 252.33942,91.281601 l -0.41226,-2.47827 22.61705,0.23947 22.61704,0.23948 21.65387,59.050579 c 11.90963,32.47783 22.02946,59.17578 22.48851,59.3288 0.45906,0.15302 10.26515,-26.01676 21.79131,-58.15506 11.52616,-32.1383 21.34709,-58.937009 21.82428,-59.552679 0.65218,-0.84144 6.31437,-1.1194 22.80262,-1.1194 l 21.93499,0 -0.43956,2.01492 c -0.24175,1.1082 -15.80362,41.288159 -34.58193,89.288799 l -34.14236,87.27387 0,63.90405 c 0,42.33813 -0.31285,64.4886 -0.92703,65.63621 -0.86978,1.62521 -2.0495,1.73217 -19.10444,1.73217 -9.99757,0 -18.44606,-0.26866 -18.77441,-0.59702 z"
     style="fill:#ffffff;fill-opacity:1" />
</svg>
